<svg xmlns="http://www.w3.org/2000/svg" width="330" height="15" viewBox="0 0 330 15" fill="none">
    <path d="M1 11.7873C20.0423 12.6522 39.3454 14.966 58.3936 13.5536C67.9104 12.848 77.2841 10.3655 86.7082 8.75929C111.273 4.57246 136.075 4.91384 160.82 5.19506C189.846 5.52494 218.837 6.84621 247.854 7.62378C261.603 7.99224 274.769 8.0003 288.35 5.47894C301.956 2.95316 315.256 1.41487 329 1"
          stroke="#0F0F0F" stroke-linecap="round"/>
    <path d="M1 11.7873C20.0423 12.6522 39.3454 14.966 58.3936 13.5536C67.9104 12.848 77.2841 10.3655 86.7082 8.75929C111.273 4.57246 136.075 4.91384 160.82 5.19506C189.846 5.52494 218.837 6.84621 247.854 7.62378C261.603 7.99224 274.769 8.0003 288.35 5.47894C301.956 2.95316 315.256 1.41487 329 1"
          stroke="black" stroke-opacity="0.2" stroke-linecap="round"/>
</svg>